HIERARCHY
ROOT Hips
{
	OFFSET 0.000000 0.000000 0.000000
	CHANNELS 6 Xposition Yposition Zposition Xrotation Yrotation Zrotation
	JOINT LeftUpLeg_virtual
	{
		OFFSET 0.000000 0.000000 0.000000
		CHANNELS 3 Xrotation Yrotation Zrotation
		JOINT LeftUpLeg
		{
			OFFSET 11.394100 -6.187798 -0.413800
			CHANNELS 3 Xrotation Yrotation Zrotation
			JOINT LeftLeg
			{
				OFFSET 0.430247 -32.302673 3.732800
				CHANNELS 3 Xrotation Yrotation Zrotation
				JOINT LeftFoot
				{
					OFFSET -0.430247 -48.264931 -6.423300
					CHANNELS 3 Xrotation Yrotation Zrotation
					JOINT LeftToeBase
					{
						OFFSET 4.230900 -16.068199 23.438400
						CHANNELS 3 Xrotation Yrotation Zrotation
						JOINT LeftToe_End
						{
							OFFSET 4.510700 0.695400 19.974600
							CHANNELS 3 Xrotation Yrotation Zrotation
							End Site
							{
								OFFSET 0 0 0
							}
						}
					}
				}
			}
		}
	}
	JOINT RightUpLeg_virtual
	{
		OFFSET 0.000000 0.000000 0.000000
		CHANNELS 3 Xrotation Yrotation Zrotation
		JOINT RightUpLeg
		{
			OFFSET -11.333700 -6.187798 -0.413800
			CHANNELS 3 Xrotation Yrotation Zrotation
			JOINT RightLeg
			{
				OFFSET -0.430392 -32.302628 3.733000
				CHANNELS 3 Xrotation Yrotation Zrotation
				JOINT RightFoot
				{
					OFFSET 0.430392 -48.264973 -6.423500
					CHANNELS 3 Xrotation Yrotation Zrotation
					JOINT RightToeBase
					{
						OFFSET -4.230900 -16.068199 23.438400
						CHANNELS 3 Xrotation Yrotation Zrotation
						JOINT RightToe_End
						{
							OFFSET -4.510700 0.695400 19.974600
							CHANNELS 3 Xrotation Yrotation Zrotation
							End Site
							{
								OFFSET 0 0 0
							}
						}
					}
				}
			}
		}
	}
	JOINT Spine_virtual
	{
		OFFSET 0.000000 0.000000 0.000000
		CHANNELS 3 Xrotation Yrotation Zrotation
		JOINT Spine
		{
			OFFSET -0.002400 12.777504 0.315300
			CHANNELS 3 Xrotation Yrotation Zrotation
			JOINT Spine1
			{
				OFFSET -0.002067 5.816869 0.032633
				CHANNELS 3 Xrotation Yrotation Zrotation
				JOINT Spine1_split
				{
					OFFSET -0.002067 5.816869 0.032633
					CHANNELS 3 Xrotation Yrotation Zrotation
					JOINT Spine2
					{
						OFFSET -0.002067 5.816869 0.032633
						CHANNELS 3 Xrotation Yrotation Zrotation
						JOINT Neck_virtual
						{
							OFFSET 0.000000 0.000000 0.000000
							CHANNELS 3 Xrotation Yrotation Zrotation
							JOINT Neck
							{
								OFFSET -0.003700 21.199493 -0.826900
								CHANNELS 3 Xrotation Yrotation Zrotation
								JOINT Head
								{
									OFFSET 0.000000 20.442200 4.834800
									CHANNELS 3 Xrotation Yrotation Zrotation
									JOINT HeadTop_End
									{
										OFFSET 0.000000 34.668396 4.968400
										CHANNELS 3 Xrotation Yrotation Zrotation
										End Site
										{
											OFFSET 0 0 0
										}
									}
								}
							}
						}
						JOINT LeftShoulder_virtual
						{
							OFFSET 0.000000 0.000000 0.000000
							CHANNELS 3 Xrotation Yrotation Zrotation
							JOINT LeftShoulder
							{
								OFFSET 3.288150 8.794197 -1.372250
								CHANNELS 3 Xrotation Yrotation Zrotation
								JOINT LeftShoulder_split
								{
									OFFSET 3.288150 8.794197 -1.372250
									CHANNELS 3 Xrotation Yrotation Zrotation
									JOINT LeftArm
									{
										OFFSET 11.953299 -2.279007 -0.146200
										CHANNELS 3 Xrotation Yrotation Zrotation
										JOINT LeftForeArm
										{
											OFFSET 18.448900 0.000000 0.000000
											CHANNELS 3 Xrotation Yrotation Zrotation
											JOINT LeftHand
											{
												OFFSET 29.527798 0.000000 0.000000
												CHANNELS 3 Xrotation Yrotation Zrotation
												End Site
												{
													OFFSET 0 0 0
												}
											}
										}
									}
								}
							}
						}
						JOINT RightShoulder_virtual
						{
							OFFSET 0.000000 0.000000 0.000000
							CHANNELS 3 Xrotation Yrotation Zrotation
							JOINT RightShoulder
							{
								OFFSET -3.249400 8.794197 -1.372250
								CHANNELS 3 Xrotation Yrotation Zrotation
								JOINT RightShoulder_split
								{
									OFFSET -3.249400 8.794197 -1.372250
									CHANNELS 3 Xrotation Yrotation Zrotation
									JOINT RightArm
									{
										OFFSET -11.953299 -2.279007 -0.146200
										CHANNELS 3 Xrotation Yrotation Zrotation
										JOINT RightForeArm
										{
											OFFSET -18.448900 0.000000 0.000000
											CHANNELS 3 Xrotation Yrotation Zrotation
											JOINT RightHand
											{
												OFFSET -29.527802 0.000000 0.000000
												CHANNELS 3 Xrotation Yrotation Zrotation
												End Site
												{
													OFFSET 0 0 0
												}
											}
										}
									}
								}
							}
						}
					}
				}
			}
		}
	}
}
MOTION
Frames: 4
Frame Time: 0.03333333
-0.188535 94.284843 0.075363 0.000000 0.000000 0.000000 -6.091886 -43.084167 -4.028551 -30.528275 4.939434 14.029994 33.600702 -13.723007 -0.142485 -0.499458 0.502683 -8.887001 -2.319090 -3.216984 0.802960 0.000000 0.000000 0.000000 -6.091886 -43.084167 -4.028551 -6.240911 -12.866845 -16.842336 32.321053 -9.244134 -0.477196 -18.022424 -3.759877 17.730287 -1.784982 -0.356687 0.333182 0.000000 0.000000 0.000000 -6.091886 -43.084167 -4.028551 5.833573 4.695130 -1.240660 11.836540 9.037616 -3.083968 0.000000 0.000000 0.000000 0.000000 0.000000 0.000000 11.836545 9.037618 -3.083971 -4.303051 -1.272946 0.206310 -6.271934 20.437799 -0.377164 0.000000 0.000000 0.000000 11.836545 9.037618 -3.083971 1.392463 -0.696055 -7.877843 0.000000 0.000000 0.000000 -14.260089 2.394338 -63.277106 9.865072 -47.524921 5.927960 0.000000 0.000000 0.000000 11.836545 9.037618 -3.083971 1.410926 9.461496 9.792744 0.000000 0.000000 0.000000 1.220049 -24.270690 60.532920 -6.660702 41.858398 8.043838 0.000000 0.000000 0.000000 
-0.214822 94.224808 0.083405 0.000000 0.000000 0.000000 -5.671200 -42.995382 -3.659653 -30.937069 4.799201 13.882002 33.775764 -13.596566 -0.115290 -0.537040 0.502519 -8.944116 -2.306641 -3.273470 0.881118 0.000000 0.000000 0.000000 -5.671200 -42.995382 -3.659653 -6.850554 -12.691637 -16.845529 32.892098 -10.034975 -0.581306 -18.065470 -3.792431 17.776037 -1.879052 0.180766 0.762058 0.000000 0.000000 0.000000 -5.671200 -42.995382 -3.659653 5.733583 4.525742 -1.291081 11.629820 8.696614 -3.147943 0.000000 0.000000 0.000000 0.000000 0.000000 0.000000 11.629818 8.696622 -3.147945 -4.189979 -0.576354 0.043483 -6.017090 20.421164 -0.295642 0.000000 0.000000 0.000000 11.629818 8.696622 -3.147945 1.380121 -0.996759 -8.053121 0.000000 0.000000 0.000000 -14.173308 2.709385 -62.680940 9.587363 -47.246693 5.801173 0.000000 0.000000 0.000000 11.629818 8.696622 -3.147945 1.353089 9.120823 10.030860 0.000000 0.000000 0.000000 1.496266 -24.000615 60.284937 -5.499482 42.033124 7.478102 0.000000 0.000000 0.000000 
-0.217538 94.178024 0.103516 0.000000 0.000000 0.000000 -5.046021 -42.689007 -3.162974 -31.516385 4.580040 13.648262 33.888950 -13.662452 -0.086971 -0.491584 0.499940 -8.996364 -2.303799 -3.282727 1.002572 0.000000 0.000000 0.000000 -5.046021 -42.689007 -3.162974 -7.495794 -12.493864 -16.741980 33.419740 -11.158186 -0.725674 -18.061706 -3.840477 17.876536 -2.021484 0.753873 1.245262 0.000000 0.000000 0.000000 -5.046021 -42.689007 -3.162974 5.631223 4.350241 -1.332692 11.417961 8.343460 -3.198494 0.000000 0.000000 0.000000 0.000000 0.000000 0.000000 11.417959 8.343449 -3.198489 -4.712090 0.239330 -0.274419 -5.628830 20.400713 -0.260408 0.000000 0.000000 0.000000 11.417959 8.343449 -3.198489 1.365571 -1.313365 -8.238628 0.000000 0.000000 0.000000 -14.177990 2.972078 -62.078196 9.495119 -46.935964 5.816216 0.000000 0.000000 0.000000 11.417959 8.343449 -3.198489 1.299692 8.823658 10.220367 0.000000 0.000000 0.000000 1.828183 -23.749577 60.051679 -4.197118 42.197773 6.777230 0.000000 0.000000 0.000000 
-0.215828 94.118271 0.124390 0.000000 0.000000 0.000000 -4.277029 -42.155473 -2.645465 -32.303151 4.236364 13.392445 34.058971 -13.801547 -0.055997 -0.405264 0.490467 -8.997312 -2.300991 -3.291431 1.097024 0.000000 0.000000 0.000000 -4.277029 -42.155473 -2.645465 -8.130048 -12.303746 -16.478596 33.918415 -12.579582 -0.906252 -18.030998 -3.902797 18.058371 -2.157735 1.344038 1.863552 0.000000 0.000000 0.000000 -4.277029 -42.155473 -2.645465 5.541430 4.171372 -1.348540 11.230591 7.983835 -3.208966 0.000000 0.000000 0.000000 0.000000 0.000000 0.000000 11.230588 7.983858 -3.208966 -5.737457 1.166994 -0.702394 -5.153205 20.328180 -0.234434 0.000000 0.000000 0.000000 11.230588 7.983858 -3.208966 1.348205 -1.647995 -8.431665 0.000000 0.000000 0.000000 -14.236279 3.204021 -61.492268 9.570552 -46.641497 5.961959 0.000000 0.000000 0.000000 11.230588 7.983858 -3.208966 1.252410 8.568990 10.347231 0.000000 0.000000 0.000000 2.131725 -23.375300 59.828414 -2.736080 42.328677 5.976086 0.000000 0.000000 0.000000 
